<svg version="1" xmlns="http://www.w3.org/2000/svg" width="682.667" height="682.667" viewBox="0 0 512.000000 512.000000"><path d="M131.9 102.7c-13.9 2.8-26.3 14.9-29.4 28.7-.8 3.7-1.1 37.7-1 126.6l.1 121.5 2.2 5.4c4.4 11.1 12.2 19 22.9 23.2l5.8 2.2 121 .2c66.6 0 123-.3 125.5-.7 10.1-1.8 21.1-9.7 26.3-18.8 5.4-9.4 5.3-5.5 5.1-136.2 0-113.8-.2-121.6-1.8-126.3-4-10.9-13.2-20.6-23.6-24.7l-5.5-2.1-120.8-.1c-92.1-.1-122.2.1-126.8 1.1zm196.4 19.7c2.1.3 6.6 1.6 10 2.7 26.7 9.1 43.9 27.7 51.4 55.9 1.5 5.9 1.7 13.1 1.7 74 0 37.1-.3 69.6-.7 72.2-.3 2.6-1.6 7.5-2.8 11-8.5 25.4-26.7 42.7-53.4 51-6.9 2.1-8.4 2.1-75.4 2.3-37.7.1-70.5-.2-73-.7-25.6-4.7-46.2-20.1-57.2-42.8-7.4-15.3-7.6-18.5-7.4-94.7.1-36.7.5-67.7.8-68.8 7.4-27.7 19.3-43.5 41.2-54.7 16.5-8.4 17.7-8.5 95-8.3 36.3.1 67.7.5 69.8.9z"/><path d="M183.2 160.1c-14.3 2.6-23.5 13.7-23.5 28.4 0 8.9 2.7 14.9 9.5 21 7.1 6.3 15.6 8.5 25.3 6.4 12.7-2.8 21.3-12.9 22-25.9 1.1-18.9-14.9-33.2-33.3-29.9zM318.9 160.1c-6.3 1-11.9 4-16.3 8.9-5.4 5.9-6.9 10.2-7 19-.1 6.3.4 8.4 2.8 13.3 7.3 15 25 20.5 39.2 12.2 5.9-3.5 9.1-7 12.1-13.2 9.9-21.1-7.4-43.8-30.8-40.2zM246.2 228.4c-4.1 1.4-10.4 5.5-13 8.6-.7.8-2.4 3.7-3.7 6.5-3.2 6.5-3.1 18.8.3 25.1 7.1 13.6 24.9 19.1 38.9 12.1 10-5.1 15.3-14.5 15-26.4-.4-10.9-4.9-18.4-14.5-24-5.4-3.2-16.3-4.1-23-1.9zM178.4 295.8c-12.1 4.3-19.5 15.6-18.9 28.8 1.1 21.2 24.4 33.6 43 22.9 14.3-8.3 18.5-27.8 9-41.5-7-10.1-21.3-14.5-33.1-10.2zM313.3 296.2c-11.2 4.1-17.8 14-17.8 26.3 0 12.1 5.8 21.4 16.2 26.2 18.5 8.5 39.6-3.9 40.7-24.1 1.2-21.2-19-35.9-39.1-28.4z"/></svg>