<svg height='100px' width='100px'  fill="#000000" xmlns="http://www.w3.org/2000/svg" xmlns:xlink="http://www.w3.org/1999/xlink" version="1.1" x="0px" y="0px" viewBox="0 0 32 32" style="enable-background:new 0 0 32 32;" xml:space="preserve"><style type="text/css">
	.st0{fill-rule:evenodd;clip-rule:evenodd;}
</style><g><g><path d="M14.1,14.1c-1,1-1,2.7,0,3.7c1,1,2.7,1,3.7,0c1-1,1-2.7,0-3.7C16.8,13.1,15.2,13.1,14.1,14.1z"></path><path d="M8,20.2c-1,1-1,2.7,0,3.7c1,1,2.7,1,3.7,0c1-1,1-2.7,0-3.7C10.7,19.2,9,19.2,8,20.2z"></path><path d="M8,8c-1,1-1,2.7,0,3.7c1,1,2.7,1,3.7,0c1-1,1-2.7,0-3.7C10.7,7,9.1,7,8,8z"></path><path d="M24,11.7c1-1,1-2.7,0-3.7c-1-1-2.7-1-3.7,0c-1,1-1,2.7,0,3.7C21.3,12.8,22.9,12.8,24,11.7z"></path><path d="M26.5,2h-21C3.6,2,2,3.6,2,5.5v21C2,28.4,3.6,30,5.5,30h21c1.9,0,3.5-1.6,3.5-3.5v-21C30,3.6,28.4,2,26.5,2z M28.3,21.3    c0,3.9-3.1,7-7,7H10.8c-3.9,0-7-3.1-7-7V10.8c0-3.9,3.1-7,7-7h10.5c3.9,0,7,3.1,7,7V21.3z"></path><path d="M20.3,20.2c-1,1-1,2.7,0,3.7c1,1,2.7,1,3.7,0c1-1,1-2.7,0-3.7C23,19.2,21.3,19.2,20.3,20.2z"></path></g></g></svg>