<svg height='100px' width='100px'  fill="#000000" xmlns="http://www.w3.org/2000/svg" xmlns:xlink="http://www.w3.org/1999/xlink" version="1.1" x="0px" y="0px" viewBox="0 0 100 100" enable-background="new 0 0 100 100" xml:space="preserve"><path d="M64.495,62.313c0.924,0.473,1.68,1.015,2.255,1.59c0.575,0.575,0.97,1.182,1.172,1.787c0.202,0.604,0.213,1.206,0.019,1.768  c-0.193,0.562-0.59,1.086-1.201,1.536l-10.94,8.047c-0.602,0.443-1.362,0.771-2.219,0.984c-0.857,0.213-1.811,0.311-2.805,0.297  c-0.993-0.015-2.026-0.143-3.039-0.383c-1.013-0.24-2.007-0.593-2.922-1.058l-16.571-8.405c-0.922-0.467-1.68-1.004-2.261-1.574  c-0.582-0.57-0.987-1.175-1.203-1.777c-0.216-0.602-0.243-1.203-0.066-1.765c0.176-0.563,0.556-1.088,1.152-1.539l10.824-8.183  c0.603-0.457,1.367-0.796,2.232-1.019c0.865-0.223,1.831-0.328,2.837-0.317c1.007,0.011,2.054,0.139,3.082,0.383  c1.028,0.244,2.036,0.604,2.964,1.079L64.495,62.313z M43.525,67.061c0.498,0.253,1.037,0.445,1.587,0.576  c0.55,0.131,1.11,0.2,1.649,0.207c0.539,0.007,1.056-0.048,1.521-0.165c0.464-0.117,0.876-0.297,1.202-0.539  c0.326-0.243,0.536-0.525,0.637-0.828c0.101-0.303,0.091-0.627-0.021-0.953c-0.112-0.326-0.328-0.653-0.64-0.962  c-0.312-0.309-0.721-0.601-1.219-0.855c-0.499-0.254-1.04-0.447-1.591-0.578c-0.552-0.131-1.114-0.2-1.654-0.207  c-0.54-0.007-1.059,0.049-1.524,0.167c-0.465,0.118-0.876,0.299-1.201,0.542c-0.325,0.244-0.534,0.527-0.633,0.831  c-0.099,0.304-0.088,0.628,0.026,0.953c0.114,0.325,0.33,0.652,0.643,0.96C42.618,66.517,43.027,66.807,43.525,67.061   M55.929,67.364c0.496,0.254,1.035,0.447,1.585,0.578c0.55,0.131,1.111,0.2,1.652,0.207c0.54,0.007,1.06-0.048,1.526-0.165  c0.466-0.117,0.879-0.297,1.207-0.538c0.329-0.243,0.542-0.526,0.645-0.829c0.103-0.304,0.096-0.628-0.014-0.954  c-0.11-0.326-0.324-0.653-0.634-0.963c-0.311-0.31-0.718-0.602-1.216-0.856c-0.496-0.254-1.037-0.446-1.588-0.577  c-0.552-0.131-1.115-0.2-1.657-0.208c-0.542-0.007-1.063,0.048-1.531,0.166c-0.467,0.118-0.881,0.299-1.209,0.542  c-0.327,0.243-0.537,0.526-0.638,0.83c-0.101,0.304-0.092,0.628,0.02,0.953c0.112,0.325,0.327,0.652,0.638,0.961  C55.024,66.82,55.432,67.111,55.929,67.364 M31.383,66.772c0.496,0.252,1.035,0.444,1.584,0.574c0.549,0.13,1.109,0.199,1.646,0.207  c0.538,0.007,1.054-0.047,1.517-0.164c0.463-0.117,0.872-0.296,1.196-0.538c0.322-0.242,0.529-0.523,0.626-0.825  c0.097-0.303,0.086-0.626-0.029-0.951c-0.115-0.325-0.332-0.652-0.645-0.961c-0.314-0.309-0.723-0.6-1.222-0.854  c-0.498-0.255-1.038-0.448-1.589-0.579c-0.551-0.131-1.112-0.2-1.651-0.207c-0.539-0.007-1.056,0.049-1.518,0.166  c-0.462,0.118-0.87,0.298-1.192,0.54c-0.323,0.243-0.529,0.526-0.625,0.83c-0.096,0.303-0.083,0.627,0.032,0.952  c0.116,0.325,0.334,0.651,0.648,0.959C30.475,66.228,30.884,66.518,31.383,66.772"></path><path d="M70.898,34.714c0.869,0.531,1.669,1.205,2.371,1.968c0.702,0.763,1.306,1.615,1.784,2.505  c0.478,0.89,0.831,1.817,1.029,2.73c0.198,0.913,0.243,1.811,0.104,2.642l-2.508,15.046c-0.14,0.839-0.451,1.531-0.894,2.064  c-0.443,0.534-1.018,0.909-1.686,1.112c-0.668,0.204-1.428,0.236-2.241,0.084c-0.813-0.152-1.679-0.487-2.558-1.019l-15.905-9.632  c-0.885-0.535-1.698-1.216-2.412-1.99c-0.713-0.773-1.326-1.638-1.81-2.542c-0.483-0.903-0.837-1.845-1.033-2.77  c-0.196-0.925-0.233-1.835-0.083-2.675l2.685-15.036c0.148-0.829,0.466-1.509,0.916-2.03c0.449-0.52,1.03-0.881,1.701-1.072  c0.671-0.19,1.433-0.21,2.247-0.048c0.813,0.162,1.678,0.505,2.555,1.041L70.898,34.714z M54.156,35.562  c0.473,0.288,0.94,0.472,1.379,0.557c0.439,0.085,0.851,0.073,1.213-0.032c0.362-0.105,0.675-0.301,0.916-0.584  c0.242-0.283,0.412-0.651,0.49-1.1c0.078-0.448,0.056-0.934-0.049-1.427c-0.106-0.494-0.296-0.996-0.554-1.478  c-0.259-0.482-0.586-0.944-0.968-1.358c-0.381-0.414-0.816-0.78-1.289-1.069c-0.473-0.289-0.94-0.474-1.379-0.56  c-0.439-0.087-0.85-0.075-1.212,0.028c-0.362,0.104-0.675,0.3-0.917,0.581c-0.242,0.282-0.414,0.65-0.493,1.098  c-0.079,0.448-0.058,0.934,0.047,1.429c0.105,0.495,0.295,0.998,0.554,1.482c0.259,0.484,0.588,0.947,0.97,1.362  C53.246,34.907,53.682,35.273,54.156,35.562 M67.965,43.972c0.472,0.287,0.937,0.47,1.373,0.554c0.436,0.084,0.844,0.07,1.202-0.036  c0.358-0.106,0.667-0.304,0.905-0.588c0.238-0.284,0.405-0.653,0.481-1.101c0.075-0.447,0.052-0.931-0.055-1.424  c-0.107-0.493-0.297-0.994-0.556-1.476c-0.258-0.482-0.585-0.943-0.965-1.356c-0.38-0.413-0.812-0.778-1.283-1.065  c-0.471-0.287-0.934-0.471-1.37-0.556c-0.436-0.085-0.844-0.072-1.202,0.032c-0.359,0.105-0.668,0.302-0.907,0.584  c-0.239,0.283-0.408,0.651-0.484,1.1c-0.077,0.448-0.054,0.934,0.052,1.428c0.106,0.494,0.297,0.997,0.556,1.479  c0.259,0.483,0.587,0.945,0.968,1.358C67.059,43.32,67.493,43.684,67.965,43.972 M60.151,46.673  c0.474,0.288,0.942,0.471,1.381,0.555c0.439,0.084,0.85,0.069,1.211-0.038c0.361-0.107,0.672-0.306,0.912-0.592  c0.24-0.285,0.409-0.656,0.486-1.107c0.077-0.451,0.055-0.938-0.052-1.433c-0.106-0.495-0.297-0.999-0.556-1.482  c-0.259-0.483-0.587-0.946-0.969-1.36c-0.381-0.414-0.816-0.779-1.289-1.068c-0.473-0.288-0.94-0.472-1.378-0.557  c-0.439-0.085-0.849-0.072-1.211,0.034c-0.361,0.106-0.673,0.304-0.915,0.588c-0.241,0.284-0.412,0.655-0.49,1.105  c-0.078,0.451-0.057,0.938,0.049,1.434c0.106,0.496,0.297,1.001,0.556,1.485c0.26,0.484,0.589,0.949,0.971,1.364  C59.24,46.018,59.676,46.384,60.151,46.673 M65.637,57.646c0.474,0.287,0.942,0.469,1.381,0.552  c0.439,0.083,0.849,0.066,1.209-0.043c0.36-0.109,0.671-0.31,0.91-0.598c0.239-0.287,0.408-0.661,0.484-1.114  c0.076-0.453,0.053-0.942-0.054-1.439c-0.107-0.497-0.298-1.002-0.557-1.485c-0.259-0.484-0.587-0.947-0.968-1.361  c-0.381-0.414-0.815-0.778-1.286-1.064c-0.473-0.287-0.94-0.47-1.378-0.553c-0.438-0.084-0.849-0.069-1.209,0.039  c-0.361,0.108-0.672,0.308-0.913,0.594c-0.241,0.287-0.41,0.659-0.488,1.112c-0.077,0.451-0.055,0.94,0.052,1.438  c0.107,0.498,0.298,1.004,0.557,1.489c0.26,0.486,0.588,0.951,0.97,1.366C64.729,56.994,65.164,57.36,65.637,57.646 M51.755,49.227  c0.477,0.289,0.948,0.473,1.39,0.557c0.442,0.084,0.856,0.069,1.219-0.038c0.364-0.107,0.677-0.307,0.92-0.593  c0.242-0.286,0.414-0.658,0.492-1.109c0.079-0.453,0.057-0.942-0.049-1.44c-0.106-0.497-0.297-1.003-0.557-1.488  c-0.26-0.485-0.589-0.95-0.972-1.365c-0.383-0.416-0.82-0.782-1.296-1.071c-0.474-0.288-0.942-0.471-1.383-0.556  c-0.441-0.085-0.854-0.071-1.217,0.036c-0.364,0.106-0.678,0.305-0.922,0.59c-0.244,0.285-0.416,0.656-0.496,1.107  c-0.082,0.452-0.062,0.941,0.043,1.439c0.105,0.498,0.296,1.005,0.556,1.492c0.26,0.487,0.59,0.953,0.974,1.369  C50.842,48.572,51.279,48.939,51.755,49.227"></path><path d="M43.646,25.067c0.617-0.521,1.158-0.854,1.609-1.011c0.451-0.157,0.812-0.136,1.066,0.05  c0.255,0.187,0.403,0.541,0.429,1.05c0.027,0.51-0.069,1.176-0.301,1.988l-4.213,14.701c-0.235,0.819-0.584,1.706-1.016,2.608  c-0.432,0.902-0.946,1.819-1.508,2.698c-0.562,0.879-1.172,1.72-1.797,2.47c-0.625,0.75-1.264,1.409-1.884,1.925l-11.127,9.278  c-0.614,0.512-1.15,0.833-1.594,0.976c-0.443,0.142-0.794,0.106-1.039-0.096c-0.244-0.202-0.382-0.571-0.398-1.093  c-0.017-0.522,0.087-1.197,0.326-2.015l4.272-14.635c0.235-0.807,0.583-1.679,1.01-2.566c0.427-0.886,0.933-1.787,1.486-2.651  c0.553-0.864,1.152-1.692,1.766-2.432c0.614-0.74,1.241-1.392,1.85-1.905L43.646,25.067z M33.371,46.094  c0.333-0.279,0.675-0.633,1.01-1.036c0.335-0.403,0.662-0.854,0.963-1.325c0.301-0.471,0.577-0.962,0.809-1.445  c0.232-0.483,0.42-0.959,0.547-1.398c0.127-0.439,0.18-0.801,0.168-1.079c-0.012-0.278-0.09-0.472-0.225-0.576  c-0.135-0.104-0.327-0.119-0.569-0.037c-0.241,0.081-0.532,0.259-0.864,0.538c-0.331,0.278-0.672,0.632-1.005,1.033  c-0.334,0.402-0.66,0.851-0.96,1.321c-0.301,0.47-0.576,0.96-0.808,1.442c-0.232,0.482-0.42,0.957-0.548,1.396  c-0.127,0.439-0.181,0.801-0.17,1.08c0.011,0.279,0.088,0.474,0.221,0.58c0.134,0.106,0.325,0.122,0.566,0.042  C32.748,46.549,33.039,46.373,33.371,46.094"></path></svg>